PathFileType	4	(X/Y/Z)	E:\Qualisys_Data\Carbon_Farble_Plate\Data\Amateur_Runner\S2\T3\S2T3V23_c3d.trc
DataRate	CameraRate	NumFrames	NumMarkers	Units	OrigDataRate	OrigDataStartFrame	OrigNumFrames
200.000000	200.000000	4	39	mm	200.000000	39	317
Frame#	Time	LSHO			RSHO			LICST			RICST			LASIS			LHEEL			RASIS			LTROC			RTROC			SACR			LTH1			LSK4			LTH2			LTH3			RHM5			LSK2			LTH4			RTH1			LTOE			RTH2			RTH3			RTH4			LLEP			RLEP			LSK1			LSK3			RSK1			LHM5			RSK2			LFT1			RSK3			RSK4			LLME			RLME			RTOE			RHEEL			RFT1			RFT2			LFT2			
		X1	Y1	Z1	X2	Y2	Z2	X3	Y3	Z3	X4	Y4	Z4	X5	Y5	Z5	X6	Y6	Z6	X7	Y7	Z7	X8	Y8	Z8	X9	Y9	Z9	X10	Y10	Z10	X11	Y11	Z11	X12	Y12	Z12	X13	Y13	Z13	X14	Y14	Z14	X15	Y15	Z15	X16	Y16	Z16	X17	Y17	Z17	X18	Y18	Z18	X19	Y19	Z19	X20	Y20	Z20	X21	Y21	Z21	X22	Y22	Z22	X23	Y23	Z23	X24	Y24	Z24	X25	Y25	Z25	X26	Y26	Z26	X27	Y27	Z27	X28	Y28	Z28	X29	Y29	Z29	X30	Y30	Z30	X31	Y31	Z31	X32	Y32	Z32	X33	Y33	Z33	X34	Y34	Z34	X35	Y35	Z35	X36	Y36	Z36	X37	Y37	Z37	X38	Y38	Z38	X39	Y39	Z39	

40	0.195	-2378.910400390625	1415.621337890625	-392.9388732910156	-2393.23095703125	1378.811645507812	-68.42053985595703	-2468.353271484375	952.3057250976562	-399.5533142089844	-2481.42431640625	947.425048828125	-92.7717056274414	-2409.45703125	901.5481567382812	-378.5585021972656	-2748.122802734375	542.5208129882812	-276.7911071777344	-2413.586181640625	910.481201171875	-113.6519622802734	-2538.135986328125	825.7389526367188	-393.5951538085938	-2558.208251953125	852.3511352539062	-96.60675048828124	-2560.05712890625	999.4155883789062	-253.1638946533203	-2354.055908203125	610.8900146484375	-416.4556579589844	-2579.93017578125	507.72216796875	-376.3190612792969	-2435.224853515625	591.370849609375	-419.0818176269531	-2331.04345703125	510.3662109375	-403.0155639648438	-2452.747802734375	80.0914077758789	-125.6421127319336	-2484.356689453125	499.5772705078125	-404.1211242675781	-2415.2412109375	494.9108581542969	-397.7183227539062	-2361.286865234375	611.344970703125	-95.58876037597656	-2795.057861328125	301.0297546386719	-320.033203125	-2437.7939453125	593.9465942382812	-92.70148468017578	-2340.453857421875	514.9786376953125	-120.9755172729492	-2420.509765625	500.5218811035156	-114.0212020874023	-2371.955322265625	458.7949523925781	-403.7197875976562	-2384.478759765625	468.507080078125	-116.1021728515625	-2489.377197265625	421.4010620117188	-391.2068786621094	-2587.2080078125	429.0322875976562	-372.4707336425781	-2392.583251953125	341.0195922851562	-121.1222991943359	-2810.272705078125	370.2347717285156	-369.0341186523438	-2462.587646484375	376.0331115722656	-103.8081207275391	-2775.58642578125	534.5889282226562	-248.3846130371094	-2440.364990234375	251.2463989257812	-134.6126251220703	-2508.008544921875	288.3096618652344	-118.0154571533203	-2749.467529296875	487.9158630371094	-337.9551696777344	-2562.847412109375	116.1175231933594	-150.5937194824219	-2386.7880859375	78.44670867919922	-183.9226226806641	-2630.7529296875	109.8029479980469	-212.0142974853516	-2621.423583984375	78.39730834960938	-235.7642822265625	-2637.00048828125	86.66162872314453	-187.6269226074219	-2782.255126953125	548.7398681640625	-299.9994812011719
41	0.2	-2361.57421875	1417.513549804688	-393.3852233886719	-2372.654296875	1380.72021484375	-69.11936950683594	-2449.446044921875	954.1224365234376	-399.0892028808594	-2462.342529296875	948.2388305664062	-92.65927886962892	-2391.459716796875	904.2970581054688	-378.5098571777344	-2721.09375	537.7131958007812	-276.5474548339844	-2394.179931640625	911.4028930664062	-112.7541732788086	-2518.898681640625	827.6237182617188	-394.05859375	-2539.7646484375	853.6993408203125	-96.99493408203124	-2541.121337890625	1000.331787109375	-252.3395843505859	-2327.870849609375	616.07568359375	-415.6543273925781	-2550.555908203125	507.2519226074219	-376.474853515625	-2408.4619140625	594.2388305664062	-418.97314453125	-2301.4208984375	516.7518310546875	-401.011474609375	-2452.620849609375	79.70475006103516	-125.567741394043	-2454.130615234375	501.3175354003906	-403.1962585449219	-2385.4990234375	498.5325317382812	-396.5865173339844	-2350.49462890625	607.4319458007812	-93.86728668212892	-2756.917724609375	294.6631164550781	-319.8596801757812	-2427.51416015625	592.0552978515625	-92.88787078857422	-2332.461181640625	511.0693969726562	-119.8040161132812	-2412.29541015625	498.1767578125	-114.6608657836914	-2340.48583984375	462.4213256835938	-401.8171081542969	-2378.96630859375	465.3618469238281	-114.5088882446289	-2457.222900390625	422.3573608398438	-389.3684997558594	-2555.8955078125	428.3931884765625	-371.7592468261719	-2386.957763671875	338.1603393554688	-120.9242324829102	-2775.427978515625	363.4506225585938	-369.8441467285156	-2457.04296875	374.8591918945312	-104.1051712036133	-2749.500244140625	528.6944580078125	-250.2324981689453	-2436.79150390625	250.2145843505859	-134.1250305175781	-2503.7890625	288.6509399414062	-117.7272720336914	-2719.445068359375	482.2025451660156	-338.0254516601562	-2561.599365234375	118.0732040405273	-150.7346038818359	-2386.26611328125	77.7847900390625	-183.5181121826172	-2630.417236328125	111.383186340332	-211.8186340332031	-2620.8798828125	79.95915222167969	-235.9088745117188	-2636.533203125	87.38115692138672	-187.03515625	-2755.79443359375	542.8546142578125	-301.7939453125
42	0.205	-2344.595947265625	1419.521484375	-393.6378784179688	-2351.075927734375	1383.135498046875	-69.49369812011719	-2430.519775390625	956.339599609375	-398.6152648925781	-2443.31982421875	949.6304321289062	-92.60020446777344	-2372.10546875	907.1549682617188	-377.5023498535156	-2693.57177734375	529.6473388671875	-276.4592895507812	-2374.171630859375	912.771240234375	-112.8144989013672	-2498.868408203125	829.3963623046875	-393.698974609375	-2520.3525390625	854.6409912109375	-96.41163635253906	-2521.7490234375	1001.705444335938	-251.3404541015625	-2301.587158203125	621.2886962890625	-415.0062255859375	-2521.063232421875	506.3553771972656	-376.2492065429688	-2384.04296875	600.0296630859375	-420.1543884277344	-2272.23193359375	522.9212036132812	-399.0698547363281	-2452.3564453125	79.57571411132812	-125.7817077636719	-2424.93798828125	503.4165649414062	-402.2644348144531	-2356.003662109375	502.8821716308594	-395.8209533691406	-2340.871337890625	603.9751586914062	-92.830810546875	-2719.020263671875	287.3837280273438	-318.1956481933594	-2418.600341796875	591.1807861328125	-92.75440979003906	-2324.75634765625	506.2864074707031	-119.2297439575195	-2405.788330078125	497.1191711425781	-114.2612380981445	-2310.0087890625	467.37548828125	-399.9229736328125	-2372.505859375	463.6933288574219	-113.1303329467773	-2424.90478515625	423.8590698242188	-387.2598876953125	-2524.063720703125	427.5324096679688	-370.8738708496094	-2381.2060546875	337.8566284179688	-119.9675827026367	-2740.4453125	355.2426147460938	-369.8122253417969	-2451.4833984375	375.339111328125	-103.8968353271484	-2723.515625	521.9382934570312	-251.4959411621094	-2432.41943359375	249.0302734375	-133.7915496826172	-2499.33056640625	288.5126647949219	-117.2394027709961	-2690.883056640625	477.21923828125	-339.4707336425781	-2560.2568359375	119.2074890136719	-150.8772888183594	-2386.460693359375	76.99166107177734	-183.455078125	-2630.17919921875	112.4927139282227	-211.5126647949219	-2621.05029296875	81.78700256347656	-236.0574035644531	-2635.97900390625	88.21649932861328	-186.5142669677734	-2729.099365234375	535.658447265625	-302.3779907226562
43	0.21	-2327.4365234375	1421.901000976562	-394.080078125	-2329.611572265625	1386.321044921875	-70.32254028320312	-2411.5986328125	959.286376953125	-398.7998046875	-2422.447021484375	951.735595703125	-92.56357574462892	-2353.32958984375	910.0675659179688	-377.7459106445312	-2667.747314453125	525.0042114257812	-276.5514526367188	-2355.05078125	913.9116821289062	-112.9302291870117	-2479.607666015625	832.3040771484375	-393.9009704589844	-2501.464111328125	856.5690307617188	-96.12549591064452	-2502.32080078125	1003.142944335938	-250.3682861328125	-2275.596923828125	627.704345703125	-413.8810729980469	-2492.192138671875	505.6459350585938	-375.5260009765625	-2356.311767578125	601.8604736328125	-419.1605224609375	-2243.953125	530.3693237304688	-397.2852478027344	-2451.592041015625	79.53740692138672	-125.6607055664062	-2395.6474609375	505.0797119140625	-400.2489929199219	-2327.423583984375	507.888916015625	-394.9435729980469	-2329.771728515625	600.2723388671875	-92.1744384765625	-2680.57568359375	279.8521118164062	-317.9226684570312	-2409.454345703125	590.2735595703125	-92.15354919433594	-2318.216796875	502.1367492675781	-118.9844818115234	-2398.83203125	496.0562744140625	-114.3474044799805	-2281.11181640625	474.9302368164062	-398.8557434082031	-2365.953857421875	462.3351440429688	-112.3588256835938	-2393.312744140625	426.91845703125	-386.0379333496094	-2492.110107421875	426.703125	-369.7554626464844	-2376.530029296875	336.8841552734375	-119.3404083251953	-2705.15966796875	346.5223388671875	-369.9468994140625	-2445.991455078125	375.6641235351562	-103.1228103637695	-2696.38720703125	514.962646484375	-251.7897338867188	-2428.088134765625	249.4205169677734	-133.9894866943359	-2495.251708984375	289.5552368164062	-116.8378677368164	-2660.94384765625	470.2041015625	-338.9622497558594	-2558.695556640625	121.2394866943359	-152.0728759765625	-2386.193115234375	76.6968002319336	-183.4218139648438	-2630.533203125	114.1055450439453	-211.2644653320312	-2620.448974609375	82.99186706542969	-235.5045928955078	-2635.89501953125	90.69028472900392	-187.2284698486328	-2703.163330078125	526.3810424804688	-303.5380554199219
